<svg version="1.1" id="Layer_1" xmlns="http://www.w3.org/2000/svg" xmlns:xlink="http://www.w3.org/1999/xlink" x="0px" y="0px"
	 width="100%" viewBox="0 0 740 390" enable-background="new 0 0 740 390" xml:space="preserve">
<path fill="#FFFEFE" opacity="1.000000" stroke="none" 
	d="
M489.000000,391.000000 
	C326.035950,391.000000 163.571884,391.000000 1.053916,391.000000 
	C1.053916,261.064728 1.053916,131.129410 1.053916,1.097048 
	C247.547363,1.097048 494.094788,1.097048 740.821106,1.097048 
	C740.821106,130.999802 740.821106,260.999878 740.821106,391.000000 
	C657.129456,391.000000 573.314697,391.000000 489.000000,391.000000 
M443.751068,246.830032 
	C446.009979,246.293411 448.332458,245.941208 450.516724,245.188095 
	C459.754242,242.003174 466.116638,234.245773 466.404724,226.016266 
	C466.715454,217.140106 461.701904,210.169052 451.994965,205.921188 
	C450.749451,205.376160 449.569794,204.680695 447.949646,203.842911 
	C450.580444,202.292267 452.643280,201.211502 454.565491,199.921249 
	C466.096985,192.180908 465.239258,177.891602 452.595642,172.113388 
	C448.176117,170.093628 443.065338,168.813187 438.220154,168.645950 
	C424.745056,168.180832 411.243683,168.463348 397.752747,168.493225 
	C396.338623,168.496368 394.925140,168.783752 393.286652,168.963974 
	C393.286652,194.437943 393.271210,219.408722 393.360077,244.379135 
	C393.362823,245.141815 394.451965,245.900620 395.946014,246.872040 
	C411.618591,246.802261 427.291138,246.732498 443.751068,246.830032 
M346.301727,137.926544 
	C349.594116,130.303848 352.928101,122.698738 356.165253,115.052650 
	C358.587402,109.331566 360.272552,108.618523 367.035583,110.983925 
	C364.349213,115.552338 361.687897,120.078125 359.026581,124.603912 
	C359.504608,124.916016 359.982635,125.228111 360.460663,125.540215 
	C366.332642,117.569641 372.204620,109.599075 378.836639,100.596870 
	C373.914062,100.596870 370.400909,100.596870 366.284637,100.596870 
	C373.367706,90.249382 379.995148,80.567482 387.003021,70.329826 
	C382.580048,70.686745 378.967041,70.978302 374.742981,71.319160 
	C377.703491,65.555054 380.185211,60.723156 382.852539,55.529819 
	C379.156769,55.830173 376.740173,56.176140 374.320648,56.197735 
	C362.827911,56.300312 351.327606,56.083969 339.843018,56.422482 
	C327.382141,56.789761 317.365417,65.554024 314.862915,77.651512 
	C311.258331,95.076859 307.728699,112.518341 304.004639,129.918167 
	C300.786285,144.955444 314.795746,158.881302 329.698303,155.193695 
	C338.455383,153.026779 343.344543,146.876404 346.301727,137.926544 
M398.511414,109.903831 
	C400.675446,109.903831 402.880035,110.171616 404.995544,109.851173 
	C410.313751,109.045616 412.924469,111.153717 414.769684,116.298561 
	C418.068359,125.495964 422.193268,134.407089 426.184113,143.343506 
	C430.677246,153.404724 441.645630,157.965134 452.488190,154.518738 
	C462.264801,151.411148 468.321411,140.882248 466.226807,130.351028 
	C462.860046,113.423477 459.504822,96.492050 455.921967,79.609520 
	C452.610596,64.006142 442.656342,56.249012 426.484406,56.250969 
	C421.018738,56.251629 415.553070,56.251076 409.846893,56.251076 
	C409.932098,54.319431 409.997864,52.827824 410.121674,50.020489 
	C406.004730,54.815266 402.778381,58.572819 398.787659,63.220577 
	C403.430786,63.220577 406.804840,63.220577 411.180359,63.220577 
	C402.437500,75.240372 394.257050,86.486923 385.435822,98.614464 
	C390.704651,98.006195 394.755829,97.538506 400.030212,96.929596 
	C394.811951,101.604256 390.424011,105.535080 385.547302,109.903770 
	C390.220886,109.903770 393.875305,109.903770 398.511414,109.903831 
M163.349014,182.514862 
	C163.349014,203.793747 163.349014,225.072647 163.349014,246.578323 
	C170.907211,246.578323 177.927200,246.578323 185.338882,246.578323 
	C185.338882,238.378922 185.193390,230.569672 185.454391,222.774017 
	C185.510574,221.096069 186.653717,218.543137 187.959885,218.005371 
	C190.806870,216.833298 191.866516,218.960083 193.063110,221.623383 
	C196.443451,229.147110 200.373199,236.434738 204.350235,243.670425 
	C205.132156,245.093063 207.062698,246.739059 208.519592,246.794006 
	C216.558823,247.097168 224.615433,246.939011 234.129425,246.939011 
	C222.571762,237.946411 213.255661,228.993347 207.302490,218.577179 
	C213.606522,214.144653 220.246231,210.931305 224.924057,205.895523 
	C235.946442,194.029663 231.441452,176.619019 216.348206,170.898087 
	C212.541855,169.455338 208.279282,168.689926 204.201920,168.587692 
	C192.214462,168.287170 180.214691,168.464951 168.219803,168.488495 
	C166.766052,168.491348 165.312683,168.696289 163.349335,168.846603 
	C163.349335,173.284927 163.349335,177.403534 163.349014,182.514862 
M312.079803,229.464249 
	C316.209686,240.257202 324.307404,246.349625 335.425842,248.173340 
	C347.283752,250.118362 355.893951,244.773605 362.009308,233.869812 
	C364.070099,237.290604 365.919525,239.843643 367.227448,242.649139 
	C369.353455,247.209381 372.579620,247.898285 376.829834,246.344147 
	C376.829834,217.847748 376.829834,189.630798 376.829834,161.432739 
	C370.535126,161.432739 364.664429,161.432739 358.291809,161.432739 
	C358.291809,171.095520 358.291809,180.317047 358.291809,189.839798 
	C343.039886,180.324844 329.311401,180.590530 319.038177,191.130478 
	C308.557037,201.883713 307.388672,214.887283 312.079803,229.464249 
M485.294098,240.231155 
	C495.380035,247.755112 506.413574,249.832611 518.744812,246.987427 
	C538.444702,242.442093 549.172607,221.111740 541.462708,202.440475 
	C535.942200,189.071396 516.099548,179.288132 500.921204,183.263046 
	C487.774261,186.705978 478.031097,193.589783 474.474701,206.894241 
	C471.061920,219.661346 474.461517,230.956924 485.294098,240.231155 
M275.939392,182.649155 
	C262.368958,181.268951 250.583817,184.922470 242.748444,196.497284 
	C234.994583,207.951675 234.895706,220.378357 241.594589,232.453171 
	C249.182220,246.129974 267.198334,251.872330 283.093414,246.228043 
	C289.225494,244.050568 294.428253,240.714447 298.193817,235.310013 
	C299.846039,232.938705 300.103088,231.351822 296.689545,230.183075 
	C293.634094,229.136948 291.989014,229.095291 289.977600,232.315475 
	C284.726990,240.721497 274.458099,242.976151 265.888428,238.241959 
	C260.411865,235.216507 256.980011,228.721848 258.240051,223.498062 
	C268.105927,225.805664 278.020660,226.259003 287.693054,222.754684 
	C295.141418,220.056137 300.853882,215.399307 301.718750,206.860077 
	C302.645905,197.705795 298.668335,190.842926 290.561981,186.916977 
	C286.312622,184.859009 281.409271,184.151459 275.939392,182.649155 
M595.991699,228.422379 
	C592.928833,224.066254 589.966797,219.634033 586.762207,215.384796 
	C585.058960,213.126343 585.058472,211.422241 587.017944,209.319946 
	C590.760803,205.304230 594.321472,201.116623 597.904907,196.954926 
	C601.412048,192.881836 604.853394,188.752197 608.675049,184.231766 
	C601.170837,182.949326 595.353271,182.961044 591.310181,190.121414 
	C588.344910,195.372849 584.013184,199.852646 579.820068,205.285797 
	C575.203369,198.815567 571.139099,192.992218 566.913269,187.288574 
	C565.887512,185.904099 564.398682,184.010162 563.003906,183.903336 
	C557.762878,183.501923 552.472595,183.742447 546.577393,183.742447 
	C547.428162,185.413223 547.816589,186.468979 548.442322,187.357697 
	C552.753357,193.481018 557.149475,199.544601 561.445923,205.678009 
	C564.206787,209.619354 569.141724,213.784317 568.913696,217.598648 
	C568.668579,221.698349 563.589050,225.556168 560.503845,229.427795 
	C556.022278,235.051651 551.437500,240.593307 546.698608,246.413315 
	C554.678101,248.096268 560.558594,247.210464 564.435181,239.664734 
	C567.032288,234.609406 571.039612,230.278534 574.890015,224.969772 
	C579.601990,231.608994 583.744568,237.573273 588.049561,243.417892 
	C589.064636,244.795975 590.561096,246.670517 591.949219,246.772125 
	C597.307922,247.164413 602.712402,246.931412 609.047546,246.931412 
	C604.408630,240.345963 600.413452,234.674240 595.991699,228.422379 
M460.614227,264.977539 
	C459.881805,269.485168 459.149353,273.992828 458.421387,278.473053 
	C449.969696,275.813416 444.895905,277.176758 441.340240,283.170685 
	C438.197205,288.468964 438.975159,296.200256 443.067871,300.339874 
	C447.600403,304.924347 452.842346,305.152679 459.890167,300.956573 
	C460.470184,301.418915 461.035370,302.144958 461.762970,302.391144 
	C463.205963,302.879364 464.738556,303.102905 466.234100,303.435883 
	C465.934875,301.938751 465.623993,300.443848 465.339478,298.943909 
	C465.036743,297.347900 464.525146,295.749420 464.509460,294.148041 
	C464.426270,285.669067 464.447784,277.188751 464.486328,268.709106 
	C464.496094,266.562225 464.513702,264.562775 460.614227,264.977539 
M311.602448,280.946472 
	C309.691498,286.291077 307.780548,291.635651 305.398224,298.298615 
	C302.229218,291.433777 299.542023,285.955597 297.168884,280.344604 
	C295.718414,276.915100 294.011688,276.471344 291.097351,279.270142 
	C293.913025,285.518951 296.761353,291.843842 299.613983,298.166718 
	C299.955597,298.923889 300.260681,299.706177 300.684021,300.416443 
	C304.232056,306.368958 301.420715,311.411987 294.430359,311.900513 
	C293.333923,311.977142 292.315369,313.168549 291.260773,313.844482 
	C292.351837,314.569702 293.373383,315.766052 294.545929,315.939148 
	C299.796936,316.714203 303.826141,314.458801 305.831299,309.692535 
	C310.066742,299.624969 313.921143,289.397095 317.900787,279.313751 
	C315.046265,276.889496 312.932068,276.077576 311.602448,280.946472 
M432.574524,302.969238 
	C434.032654,302.910980 435.508575,302.945404 436.925690,302.673401 
	C437.096588,302.640656 437.137543,300.901489 436.914185,300.037109 
	C436.250275,297.467957 434.947906,294.974609 434.763855,292.389771 
	C434.412292,287.452942 434.661774,282.473328 434.661774,277.614227 
	C430.507812,277.375000 426.878204,277.146545 423.246429,276.961273 
	C417.263458,276.656006 412.642181,279.647858 410.378906,285.255890 
	C408.199219,290.656799 409.568604,297.094482 413.701141,300.874237 
	C417.833740,304.654022 422.294891,304.870270 428.402252,301.938263 
	C429.294708,301.509796 430.773254,302.302155 432.574524,302.969238 
M227.592850,303.011841 
	C228.931824,303.050629 230.270798,303.089447 231.609756,303.128265 
	C231.594345,302.062164 231.776993,300.946075 231.523270,299.940094 
	C230.953003,297.678925 229.691925,295.499359 229.563019,293.238098 
	C229.263474,287.983948 229.467590,282.701080 229.467590,277.605865 
	C224.657257,277.377258 220.373032,276.944672 216.099213,277.030396 
	C211.129608,277.130127 206.643799,280.921570 205.140015,285.742981 
	C203.327271,291.555084 204.884094,297.707733 209.053513,301.209320 
	C213.072678,304.584747 217.628616,304.785522 222.923462,302.241516 
	C223.976318,301.735657 225.614990,302.449127 227.592850,303.011841 
M348.586700,291.257355 
	C347.581665,301.677887 353.490967,305.188721 360.995972,303.703156 
	C363.017700,303.302979 364.855255,301.972565 366.753662,301.080322 
	C368.161865,302.002289 369.435730,303.170624 370.933746,303.681305 
	C371.727478,303.951904 373.172058,303.327637 373.827087,302.637085 
	C374.269623,302.170532 374.003906,300.844208 373.782715,299.971466 
	C373.128693,297.391266 371.881104,294.877014 371.701508,292.279175 
	C371.361176,287.356781 371.603058,282.394135 371.603058,277.212219 
	C369.619659,277.212219 368.201843,277.212219 366.229797,277.212219 
	C366.229797,282.580078 366.251923,287.690369 366.223083,292.800415 
	C366.197906,297.262573 363.726715,299.684631 359.181000,299.639069 
	C354.697601,299.594116 353.760193,296.601685 353.761536,292.898132 
	C353.763428,287.783356 353.762024,282.668579 353.762024,277.251312 
	C351.846069,277.251312 350.445251,277.251312 348.587708,277.251312 
	C348.587708,281.736328 348.587708,286.029266 348.586700,291.257355 
M276.143494,283.426086 
	C272.544739,277.793060 267.690796,275.685333 261.856201,277.222168 
	C256.763916,278.563477 252.978439,283.632233 252.645737,289.554932 
	C252.057953,300.018097 260.173279,306.356781 270.846405,303.532898 
	C272.352997,303.134277 273.501068,301.380554 274.815094,300.254089 
	C273.221313,299.963806 271.495789,299.128967 270.056488,299.477203 
	C263.732056,301.007446 259.165833,298.259796 258.849396,291.897583 
	C262.810516,291.897583 266.754608,291.897949 270.698700,291.897491 
	C278.084473,291.896667 278.343781,291.543365 276.143494,283.426086 
M195.293961,277.851227 
	C188.187088,275.802490 182.918015,277.465546 179.635956,282.793304 
	C176.710800,287.541656 177.187302,295.635223 180.633087,299.730377 
	C184.710648,304.576385 192.181931,305.421814 199.917786,301.851593 
	C200.077286,297.913971 198.193176,298.272705 195.225128,299.205902 
	C188.486115,301.324829 183.687119,298.151947 184.126068,291.897522 
	C187.739548,291.897522 191.389923,292.046783 195.020615,291.843994 
	C197.361877,291.713165 199.674271,291.065887 201.999588,290.650116 
	C201.468918,287.781403 201.336792,284.750610 200.260574,282.103699 
	C199.597336,280.472473 197.493713,279.426880 195.293961,277.851227 
M592.407227,282.728394 
	C592.407227,280.949585 592.407227,279.170776 592.407227,277.544342 
	C588.703247,276.267517 587.158081,277.093506 587.311890,280.692596 
	C587.482117,284.674530 587.373535,288.669464 587.347107,292.658447 
	C587.317322,297.160217 584.851929,299.780121 580.469727,299.791962 
	C575.773926,299.804626 574.722656,296.719086 574.747314,292.774170 
	C574.779358,287.659424 574.755188,282.544342 574.755188,277.271301 
	C572.784485,277.271301 571.377380,277.271301 569.488037,277.271301 
	C569.488037,283.030396 569.407227,288.487762 569.507019,293.941864 
	C569.654541,302.001251 576.166443,306.295746 583.587708,303.042023 
	C586.313721,301.846802 588.524536,300.722565 591.135193,303.219818 
	C591.716797,303.776154 593.429260,303.150330 594.621094,303.068787 
	C594.488892,301.900482 594.482910,300.700195 594.196716,299.570923 
	C593.689880,297.571136 592.663940,295.645416 592.485779,293.632843 
	C592.193787,290.334351 592.406311,286.991211 592.407227,282.728394 
M139.363815,294.831726 
	C139.021774,294.262695 138.590500,293.728729 138.350845,293.119446 
	C133.161438,279.925873 139.834702,271.169922 153.745285,272.650330 
	C154.888016,272.771942 156.225052,271.067688 158.062149,269.806549 
	C148.299500,265.630249 140.150482,267.353027 135.105835,273.768738 
	C130.066757,280.177368 129.892273,290.843323 134.715546,297.625336 
	C138.903854,303.514526 147.129593,305.733978 154.870926,302.809235 
	C155.951950,302.400848 156.574646,300.779358 157.409500,299.719391 
	C156.013733,299.412201 154.376526,298.476593 153.263138,298.904388 
	C147.855881,300.981873 143.553787,299.508545 139.363815,294.831726 
M525.321045,303.940643 
	C526.033264,302.713409 527.278076,301.520508 527.359985,300.252594 
	C527.626953,296.113983 527.185303,291.922577 527.554016,287.799561 
	C527.940002,283.483887 531.287842,281.470795 535.102966,281.231140 
	C539.256226,280.970245 540.154236,284.377777 540.274536,287.730255 
	C540.423401,291.880615 540.446472,296.045074 540.285583,300.194214 
	C540.128052,304.256653 542.020569,304.534973 545.352356,303.333191 
	C545.352356,297.359131 545.598938,291.544067 545.288086,285.758942 
	C544.924683,278.996246 539.503601,275.349884 533.037476,277.225769 
	C531.461121,277.683105 530.006287,278.559784 529.236633,278.908203 
	C526.738098,278.033661 524.820251,277.362366 522.159180,276.430908 
	C522.159180,285.565735 522.090271,293.519135 522.260315,301.467438 
	C522.278320,302.309448 523.698792,303.121460 525.321045,303.940643 
M494.016937,290.509521 
	C494.546997,302.678741 504.161377,307.623047 516.001953,301.815552 
	C515.092407,298.164612 515.092407,298.164612 511.782593,299.122864 
	C504.869781,301.124237 500.727936,298.829742 499.802734,291.823364 
	C505.875549,291.823364 511.876221,291.823364 517.755615,291.823364 
	C519.113464,281.681488 513.533386,275.822540 504.419464,277.005005 
	C498.518463,277.770630 494.804230,282.283691 494.016937,290.509521 
M625.835266,291.897186 
	C629.321106,291.897400 632.814758,291.752625 636.290344,291.941559 
	C639.325928,292.106598 639.938171,290.614410 639.825745,288.005676 
	C639.581787,282.342102 636.068237,278.006866 630.762268,277.065735 
	C624.551697,275.964172 618.837708,278.972504 616.547180,284.549805 
	C614.319458,289.974365 615.601074,297.255859 619.402283,300.770813 
	C623.075684,304.167603 630.957581,305.245972 635.798096,302.788239 
	C636.652222,302.354553 637.007751,300.938934 637.593567,299.976807 
	C636.539490,299.554352 635.486938,298.799744 634.431030,298.795044 
	C633.161804,298.789398 631.910217,299.597412 630.615479,299.747803 
	C625.046997,300.394745 621.967834,297.805511 621.481018,292.081573 
	C622.634521,292.019897 623.783936,291.958435 625.835266,291.897186 
M341.202179,299.698181 
	C342.011414,298.443298 342.991089,297.265503 343.599457,295.919830 
	C345.857147,290.925659 344.852936,284.767120 341.142883,281.039276 
	C336.817596,276.693268 331.586823,275.938660 325.943420,277.755646 
	C320.381897,279.546326 317.634644,283.692200 317.240631,289.346802 
	C316.848816,294.970581 318.957977,299.675659 324.004456,302.306091 
	C329.854523,305.355469 335.595337,304.606079 341.202179,299.698181 
M467.286926,278.918610 
	C470.468567,286.713226 473.515778,294.567017 476.905884,302.269867 
	C478.067383,304.908905 482.517426,304.806396 483.753113,302.135803 
	C487.282745,294.507324 490.533875,286.749939 493.828217,279.195343 
	C490.913879,276.504517 489.246887,276.981567 487.970459,280.196320 
	C485.797974,285.667603 483.417542,291.056335 480.521271,297.906403 
	C477.525269,291.030792 474.997498,285.680664 472.873627,280.174774 
	C471.725067,277.197266 470.298981,276.605499 467.286926,278.918610 
M252.474945,301.618561 
	C252.164001,299.577820 251.774078,298.176910 248.986801,299.280914 
	C245.017273,300.853271 242.890335,298.774170 242.712952,294.838745 
	C242.513779,290.420166 242.667160,285.985687 242.667160,282.476532 
	C245.721649,281.027069 247.963882,279.963013 250.206131,278.898956 
	C247.876785,277.910309 245.547424,276.921631 242.828247,275.767517 
	C242.789566,275.377777 242.844452,274.360413 242.562866,273.446747 
	C242.092606,271.920929 241.407242,270.461365 240.812408,268.973907 
	C239.807007,270.376740 238.848495,271.816437 237.782791,273.171875 
	C236.752838,274.481842 235.635468,275.726044 234.511169,276.957703 
	C233.919678,277.605621 232.604324,278.342499 232.713593,278.728302 
	C232.961411,279.603333 233.774628,280.454803 234.574326,280.996399 
	C235.292297,281.482697 236.299179,281.542389 237.295425,281.823181 
	C237.295425,285.926208 237.183441,289.745789 237.317581,293.556732 
	C237.646042,302.888733 243.791031,306.442108 252.474945,301.618561 
M557.164734,295.690521 
	C557.164734,290.930145 557.164734,286.169769 557.164734,282.248718 
	C560.132446,281.061432 562.371521,280.165649 564.610535,279.269897 
	C562.286255,278.080872 559.961914,276.891815 557.127380,275.441772 
	C557.103882,274.955811 557.259521,273.585999 556.914673,272.356567 
	C556.579041,271.160400 555.730774,270.108032 555.107544,268.992523 
	C554.343323,270.033936 553.209229,270.974701 552.892822,272.137939 
	C552.262756,274.453796 552.788818,277.396942 548.875122,277.075256 
	C548.416077,277.037537 547.417786,278.152374 547.460571,278.667084 
	C547.527222,279.467773 548.099487,280.487000 548.773621,280.911591 
	C549.644836,281.460327 550.827209,281.514923 552.151489,281.852661 
	C552.151489,286.480347 551.550659,290.919067 552.356934,295.085510 
	C552.920227,297.996307 554.820251,301.377899 557.184814,303.028625 
	C560.240051,305.161621 564.124451,304.421906 568.273193,300.803802 
	C566.187683,300.153503 564.831482,299.227997 563.784180,299.498444 
	C560.653931,300.306793 558.578674,299.494324 557.164734,295.690521 
M383.766479,289.050354 
	C384.446960,284.392517 386.820923,281.583801 391.768982,280.989990 
	C392.936188,280.849884 393.927246,279.242432 394.999329,278.309998 
	C394.633728,277.685516 394.268127,277.061035 393.902527,276.436554 
	C390.613861,277.399750 387.325195,278.362915 384.909882,279.070312 
	C382.755249,278.108368 380.982971,277.317139 378.625092,276.264496 
	C378.625092,286.161530 378.625092,294.871338 378.625092,303.947876 
	C380.409363,303.848114 381.818878,303.769287 383.708405,303.663635 
	C383.708405,298.861908 383.708405,294.406281 383.766479,289.050354 
M168.037811,286.321045 
	C171.536697,283.585236 175.035568,280.849457 178.534454,278.113647 
	C178.268585,277.577789 178.002716,277.041962 177.736862,276.506134 
	C174.559723,277.359039 171.382599,278.211975 168.468414,278.994293 
	C166.782883,278.267242 164.869339,277.441803 162.345581,276.353149 
	C162.345581,286.184570 162.345581,294.773499 162.345581,303.875488 
	C164.128876,303.788513 165.631348,303.715240 167.794708,303.609741 
	C167.794708,297.776459 167.794708,292.472687 168.037811,286.321045 
M605.248718,299.072937 
	C605.250854,296.248901 605.183594,293.422729 605.269409,290.601227 
	C605.457031,284.429016 607.154053,282.560791 613.078918,280.997620 
	C614.305359,280.674011 615.219971,279.168793 616.278259,278.208160 
	C615.891296,277.611664 615.504395,277.015137 615.117432,276.418640 
	C611.835876,277.468628 608.554382,278.518646 606.018921,279.329926 
	C604.163208,278.345734 602.531982,277.480591 600.218140,276.253448 
	C600.218140,286.221893 600.218140,294.796570 600.218140,303.393738 
	C603.821106,304.710693 605.491333,303.676483 605.248718,299.072937 
z"/>
<path fill="#E4444D" opacity="1.000000" stroke="none" 
	d="
M346.165100,138.280380 
	C343.344543,146.876404 338.455383,153.026779 329.698303,155.193695 
	C314.795746,158.881302 300.786285,144.955444 304.004639,129.918167 
	C307.728699,112.518341 311.258331,95.076859 314.862915,77.651512 
	C317.365417,65.554024 327.382141,56.789761 339.843018,56.422482 
	C351.327606,56.083969 362.827911,56.300312 374.320648,56.197735 
	C376.740173,56.176140 379.156769,55.830173 382.852539,55.529819 
	C380.185211,60.723156 377.703491,65.555054 374.742981,71.319160 
	C378.967041,70.978302 382.580048,70.686745 387.003021,70.329826 
	C379.995148,80.567482 373.367706,90.249382 366.284637,100.596870 
	C370.400909,100.596870 373.914062,100.596870 378.836639,100.596870 
	C372.204620,109.599075 366.332642,117.569641 360.460663,125.540215 
	C359.982635,125.228111 359.504608,124.916016 359.026581,124.603912 
	C361.687897,120.078125 364.349213,115.552338 367.035583,110.983925 
	C360.272552,108.618523 358.587402,109.331566 356.165253,115.052650 
	C352.928101,122.698738 349.594116,130.303848 346.165100,138.280380 
M353.389954,82.601723 
	C352.123505,81.466919 350.901672,79.439438 349.581818,79.373482 
	C346.309204,79.209930 344.808502,78.422630 344.698547,74.788139 
	C344.654785,73.341568 342.410492,71.961563 341.167999,70.551262 
	C339.826019,71.897011 337.355499,73.243317 337.356171,74.588402 
	C337.358063,78.439346 335.937622,79.410019 332.325592,79.400078 
	C331.150604,79.396835 329.274078,81.603188 329.019623,83.030830 
	C328.829926,84.095085 330.719330,86.601784 331.708405,86.615463 
	C335.626038,86.669693 337.428986,87.868675 337.419495,92.102760 
	C337.416901,93.247612 339.975677,95.245987 341.394897,95.278557 
	C342.534332,95.304703 344.039276,93.108330 344.799011,91.603790 
	C345.398682,90.416245 345.111298,88.780792 345.205078,87.516487 
	C348.204895,85.997757 352.881958,88.697021 353.389954,82.601723 
z"/>
<path fill="#4B4B44" opacity="1.000000" stroke="none" 
	d="
M398.020569,109.903801 
	C393.875305,109.903770 390.220886,109.903770 385.547302,109.903770 
	C390.424011,105.535080 394.811951,101.604256 400.030212,96.929596 
	C394.755829,97.538506 390.704651,98.006195 385.435822,98.614464 
	C394.257050,86.486923 402.437500,75.240372 411.180359,63.220577 
	C406.804840,63.220577 403.430786,63.220577 398.787659,63.220577 
	C402.778381,58.572819 406.004730,54.815266 410.121674,50.020489 
	C409.997864,52.827824 409.932098,54.319431 409.846893,56.251076 
	C415.553070,56.251076 421.018738,56.251629 426.484406,56.250969 
	C442.656342,56.249012 452.610596,64.006142 455.921967,79.609520 
	C459.504822,96.492050 462.860046,113.423477 466.226807,130.351028 
	C468.321411,140.882248 462.264801,151.411148 452.488190,154.518738 
	C441.645630,157.965134 430.677246,153.404724 426.184113,143.343506 
	C422.193268,134.407089 418.068359,125.495964 414.769684,116.298561 
	C412.924469,111.153717 410.313751,109.045616 404.995544,109.851173 
	C402.880035,110.171616 400.675446,109.903831 398.020569,109.903801 
M435.624908,80.168472 
	C434.055298,82.256989 433.393646,84.474182 436.155975,85.904114 
	C437.192841,86.440826 439.282257,86.217781 440.137177,85.473862 
	C440.991455,84.730469 441.561707,82.074226 441.101013,81.707336 
	C439.784760,80.659027 437.881470,80.347847 435.624908,80.168472 
M432.592468,90.731117 
	C431.066071,89.960236 429.549866,88.669395 428.008911,88.639122 
	C427.245178,88.624115 425.802277,90.947868 425.840820,92.176704 
	C425.873657,93.225174 428.165436,95.237892 428.457886,95.071060 
	C430.058441,94.157959 431.350464,92.704132 432.592468,90.731117 
M432.231415,72.543686 
	C430.443726,72.263176 428.632690,71.730934 426.885956,71.892639 
	C426.487244,71.929550 425.689331,74.706291 426.187469,75.606590 
	C426.820465,76.750656 428.586914,77.267570 429.864685,78.054893 
	C430.728912,76.447449 431.593170,74.840004 432.231415,72.543686 
M419.851959,79.589699 
	C418.948730,80.974060 417.687958,82.270180 417.314087,83.785187 
	C417.159363,84.412048 418.789062,86.013580 419.817963,86.248421 
	C420.852051,86.484467 422.666443,85.928848 423.237427,85.099518 
	C425.383636,81.982101 423.755615,80.258240 419.851959,79.589699 
z"/>
<path fill="#B24040" opacity="1.000000" stroke="none" 
	d="
M395.034607,246.661240 
	C394.451965,245.900620 393.362823,245.141815 393.360077,244.379135 
	C393.271210,219.408722 393.286652,194.437943 393.286652,168.963974 
	C394.925140,168.783752 396.338623,168.496368 397.752747,168.493225 
	C411.243683,168.463348 424.745056,168.180832 438.220154,168.645950 
	C443.065338,168.813187 448.176117,170.093628 452.595642,172.113388 
	C465.239258,177.891602 466.096985,192.180908 454.565491,199.921249 
	C452.643280,201.211502 450.580444,202.292267 447.949646,203.842911 
	C449.569794,204.680695 450.749451,205.376160 451.994965,205.921188 
	C461.701904,210.169052 466.715454,217.140106 466.404724,226.016266 
	C466.116638,234.245773 459.754242,242.003174 450.516724,245.188095 
	C448.332458,245.941208 446.009979,246.293411 443.232025,246.381104 
	C441.995972,245.621307 441.280060,245.042068 440.561829,245.039230 
	C426.428162,244.983734 412.293945,244.959885 398.160889,245.064896 
	C397.114899,245.072678 396.076508,246.105148 395.034607,246.661240 
M415.046021,234.358826 
	C415.157623,235.920074 415.269226,237.481308 415.397156,239.271240 
	C420.999817,239.271240 425.998138,239.550308 430.953369,239.207062 
	C438.751770,238.666901 444.821289,231.690659 444.608154,224.011536 
	C444.348022,214.641708 439.116272,209.207626 430.191315,209.088745 
	C426.529297,209.039963 422.855988,209.243668 419.206543,209.022934 
	C415.846771,208.819733 414.899323,210.219467 414.989868,213.407715 
	C415.178833,220.061661 415.047089,226.724701 415.046021,234.358826 
M440.015137,184.188904 
	C438.250824,178.435120 434.145020,176.029129 428.352966,176.012985 
	C425.356415,176.004623 422.340485,176.172501 419.368347,175.890869 
	C415.690369,175.542374 414.779938,177.174316 414.980042,180.525818 
	C415.217773,184.507614 414.961487,188.516129 415.051636,192.510071 
	C415.284668,202.834335 412.845795,202.055725 424.806244,201.561996 
	C435.073608,201.138168 441.861603,196.858292 440.015137,184.188904 
z"/>
<path fill="#B24040" opacity="1.000000" stroke="none" 
	d="
M163.349182,182.018494 
	C163.349335,177.403534 163.349335,173.284927 163.349335,168.846603 
	C165.312683,168.696289 166.766052,168.491348 168.219803,168.488495 
	C180.214691,168.464951 192.214462,168.287170 204.201920,168.587692 
	C208.279282,168.689926 212.541855,169.455338 216.348206,170.898087 
	C231.441452,176.619019 235.946442,194.029663 224.924057,205.895523 
	C220.246231,210.931305 213.606522,214.144653 207.302490,218.577179 
	C213.255661,228.993347 222.571762,237.946411 234.129425,246.939011 
	C224.615433,246.939011 216.558823,247.097168 208.519592,246.794006 
	C207.062698,246.739059 205.132156,245.093063 204.350235,243.670425 
	C200.373199,236.434738 196.443451,229.147110 193.063110,221.623383 
	C191.866516,218.960083 190.806870,216.833298 187.959885,218.005371 
	C186.653717,218.543137 185.510574,221.096069 185.454391,222.774017 
	C185.193390,230.569672 185.338882,238.378922 185.338882,246.578323 
	C177.927200,246.578323 170.907211,246.578323 163.349014,246.578323 
	C163.349014,225.072647 163.349014,203.793747 163.349182,182.018494 
M185.090195,202.416138 
	C185.090363,210.317108 185.090363,210.317123 190.695648,210.333298 
	C204.023651,210.371796 211.853058,199.487289 208.233719,186.141098 
	C206.699875,180.485168 202.872086,177.288773 197.455673,176.391037 
	C193.624710,175.756104 189.603622,176.268127 185.090317,176.268127 
	C185.090317,184.919815 185.090317,193.179459 185.090195,202.416138 
z"/>
<path fill="#B24141" opacity="1.000000" stroke="none" 
	d="
M311.943726,229.102310 
	C307.388672,214.887283 308.557037,201.883713 319.038177,191.130478 
	C329.311401,180.590530 343.039886,180.324844 358.291809,189.839798 
	C358.291809,180.317047 358.291809,171.095520 358.291809,161.432739 
	C364.664429,161.432739 370.535126,161.432739 376.829834,161.432739 
	C376.829834,189.630798 376.829834,217.847748 376.829834,246.344147 
	C372.579620,247.898285 369.353455,247.209381 367.227448,242.649139 
	C365.919525,239.843643 364.070099,237.290604 362.009308,233.869812 
	C355.893951,244.773605 347.283752,250.118362 335.425842,248.173340 
	C324.307404,246.349625 316.209686,240.257202 311.943726,229.102310 
M348.457855,192.786057 
	C341.434570,190.000122 334.768829,192.149704 331.768921,198.834549 
	C326.822693,209.856537 326.953033,221.148834 331.696136,232.209854 
	C333.747833,236.994431 337.669617,239.455719 343.162323,239.500305 
	C348.810699,239.546127 352.797302,237.172836 355.154053,232.212540 
	C359.270660,223.548248 359.596771,214.357010 356.809357,205.451172 
	C355.405579,200.965912 351.777618,197.176788 348.457855,192.786057 
z"/>
<path fill="#B24141" opacity="1.000000" stroke="none" 
	d="
M485.018311,240.003906 
	C474.461517,230.956924 471.061920,219.661346 474.474701,206.894241 
	C478.031097,193.589783 487.774261,186.705978 500.921204,183.263046 
	C516.099548,179.288132 535.942200,189.071396 541.462708,202.440475 
	C549.172607,221.111740 538.444702,242.442093 518.744812,246.987427 
	C506.413574,249.832611 495.380035,247.755112 485.018311,240.003906 
M508.562042,189.809830 
	C502.856415,189.975296 498.656250,192.847610 496.204224,197.731003 
	C490.393646,209.303299 490.357727,221.143829 496.093018,232.732422 
	C498.773254,238.147995 503.370728,241.413834 509.778748,240.854874 
	C515.810364,240.328751 519.835083,236.818802 522.165222,231.410477 
	C526.294312,221.826691 526.206848,211.924149 523.336121,202.128143 
	C521.350769,195.353409 517.184509,190.365891 508.562042,189.809830 
z"/>
<path fill="#B24343" opacity="1.000000" stroke="none" 
	d="
M276.370300,182.741608 
	C281.409271,184.151459 286.312622,184.859009 290.561981,186.916977 
	C298.668335,190.842926 302.645905,197.705795 301.718750,206.860077 
	C300.853882,215.399307 295.141418,220.056137 287.693054,222.754684 
	C278.020660,226.259003 268.105927,225.805664 258.240051,223.498062 
	C256.980011,228.721848 260.411865,235.216507 265.888428,238.241959 
	C274.458099,242.976151 284.726990,240.721497 289.977600,232.315475 
	C291.989014,229.095291 293.634094,229.136948 296.689545,230.183075 
	C300.103088,231.351822 299.846039,232.938705 298.193817,235.310013 
	C294.428253,240.714447 289.225494,244.050568 283.093414,246.228043 
	C267.198334,251.872330 249.182220,246.129974 241.594589,232.453171 
	C234.895706,220.378357 234.994583,207.951675 242.748444,196.497284 
	C250.583817,184.922470 262.368958,181.268951 276.370300,182.741608 
M265.390686,192.690552 
	C258.543701,197.859207 256.676910,205.269531 255.986206,213.277496 
	C255.705154,216.535751 257.234955,217.967239 260.212250,218.043839 
	C265.365234,218.176453 270.541473,218.447662 275.672516,218.114563 
	C281.536407,217.733902 285.873444,213.437790 286.636322,207.607758 
	C287.383148,201.900284 286.563354,196.448441 281.476562,192.864548 
	C276.585907,189.418854 271.295410,189.308853 265.390686,192.690552 
z"/>
<path fill="#B24242" opacity="1.000000" stroke="none" 
	d="
M596.204956,228.712448 
	C600.413452,234.674240 604.408630,240.345963 609.047546,246.931412 
	C602.712402,246.931412 597.307922,247.164413 591.949219,246.772125 
	C590.561096,246.670517 589.064636,244.795975 588.049561,243.417892 
	C583.744568,237.573273 579.601990,231.608994 574.890015,224.969772 
	C571.039612,230.278534 567.032288,234.609406 564.435181,239.664734 
	C560.558594,247.210464 554.678101,248.096268 546.698608,246.413315 
	C551.437500,240.593307 556.022278,235.051651 560.503845,229.427795 
	C563.589050,225.556168 568.668579,221.698349 568.913696,217.598648 
	C569.141724,213.784317 564.206787,209.619354 561.445923,205.678009 
	C557.149475,199.544601 552.753357,193.481018 548.442322,187.357697 
	C547.816589,186.468979 547.428162,185.413223 546.577393,183.742447 
	C552.472595,183.742447 557.762878,183.501923 563.003906,183.903336 
	C564.398682,184.010162 565.887512,185.904099 566.913269,187.288574 
	C571.139099,192.992218 575.203369,198.815567 579.820068,205.285797 
	C584.013184,199.852646 588.344910,195.372849 591.310181,190.121414 
	C595.353271,182.961044 601.170837,182.949326 608.675049,184.231766 
	C604.853394,188.752197 601.412048,192.881836 597.904907,196.954926 
	C594.321472,201.116623 590.760803,205.304230 587.017944,209.319946 
	C585.058472,211.422241 585.058960,213.126343 586.762207,215.384796 
	C589.966797,219.634033 592.928833,224.066254 596.204956,228.712448 
z"/>
<path fill="#8C7777" opacity="1.000000" stroke="none" 
	d="
M461.045410,264.930359 
	C464.513702,264.562775 464.496094,266.562225 464.486328,268.709106 
	C464.447784,277.188751 464.426270,285.669067 464.509460,294.148041 
	C464.525146,295.749420 465.036743,297.347900 465.339478,298.943909 
	C465.623993,300.443848 465.934875,301.938751 466.234100,303.435883 
	C464.738556,303.102905 463.205963,302.879364 461.762970,302.391144 
	C461.035370,302.144958 460.470184,301.418915 459.890167,300.956573 
	C452.842346,305.152679 447.600403,304.924347 443.067871,300.339874 
	C438.975159,296.200256 438.197205,288.468964 441.340240,283.170685 
	C444.895905,277.176758 449.969696,275.813416 458.421387,278.473053 
	C459.149353,273.992828 459.881805,269.485168 461.045410,264.930359 
M458.904694,296.685638 
	C459.004639,293.875824 458.949371,291.049622 459.243866,288.260345 
	C459.610199,284.791077 458.432098,282.350586 455.049988,281.369507 
	C451.483276,280.334869 448.489532,281.466003 446.307678,284.471893 
	C443.520996,288.311035 443.832947,293.442047 446.975830,296.846985 
	C450.370026,300.524292 453.188538,300.646973 458.904694,296.685638 
z"/>
<path fill="#8C7779" opacity="1.000000" stroke="none" 
	d="
M311.749939,280.600342 
	C312.932068,276.077576 315.046265,276.889496 317.900787,279.313751 
	C313.921143,289.397095 310.066742,299.624969 305.831299,309.692535 
	C303.826141,314.458801 299.796936,316.714203 294.545929,315.939148 
	C293.373383,315.766052 292.351837,314.569702 291.260773,313.844482 
	C292.315369,313.168549 293.333923,311.977142 294.430359,311.900513 
	C301.420715,311.411987 304.232056,306.368958 300.684021,300.416443 
	C300.260681,299.706177 299.955597,298.923889 299.613983,298.166718 
	C296.761353,291.843842 293.913025,285.518951 291.097351,279.270142 
	C294.011688,276.471344 295.718414,276.915100 297.168884,280.344604 
	C299.542023,285.955597 302.229218,291.433777 305.398224,298.298615 
	C307.780548,291.635651 309.691498,286.291077 311.749939,280.600342 
z"/>
<path fill="#897476" opacity="1.000000" stroke="none" 
	d="
M432.277557,302.749420 
	C430.773254,302.302155 429.294708,301.509796 428.402252,301.938263 
	C422.294891,304.870270 417.833740,304.654022 413.701141,300.874237 
	C409.568604,297.094482 408.199219,290.656799 410.378906,285.255890 
	C412.642181,279.647858 417.263458,276.656006 423.246429,276.961273 
	C426.878204,277.146545 430.507812,277.375000 434.661774,277.614227 
	C434.661774,282.473328 434.412292,287.452942 434.763855,292.389771 
	C434.947906,294.974609 436.250275,297.467957 436.914185,300.037109 
	C437.137543,300.901489 437.096588,302.640656 436.925690,302.673401 
	C435.508575,302.945404 434.032654,302.910980 432.277557,302.749420 
M429.718811,293.957336 
	C429.718842,291.640961 429.511230,289.301666 429.764099,287.013245 
	C430.227051,282.823212 427.934418,281.388824 424.330261,281.053436 
	C419.252991,280.580933 415.572815,283.405121 414.821899,288.323914 
	C413.962830,293.950928 416.486511,298.744415 421.299316,299.547913 
	C425.047974,300.173798 428.596527,299.372559 429.718811,293.957336 
z"/>
<path fill="#887275" opacity="1.000000" stroke="none" 
	d="
M227.288193,302.806091 
	C225.614990,302.449127 223.976318,301.735657 222.923462,302.241516 
	C217.628616,304.785522 213.072678,304.584747 209.053513,301.209320 
	C204.884094,297.707733 203.327271,291.555084 205.140015,285.742981 
	C206.643799,280.921570 211.129608,277.130127 216.099213,277.030396 
	C220.373032,276.944672 224.657257,277.377258 229.467590,277.605865 
	C229.467590,282.701080 229.263474,287.983948 229.563019,293.238098 
	C229.691925,295.499359 230.953003,297.678925 231.523270,299.940094 
	C231.776993,300.946075 231.594345,302.062164 231.609772,303.128265 
	C230.270798,303.089447 228.931824,303.050629 227.288193,302.806091 
M224.676590,292.175537 
	C224.676590,290.681732 224.692383,289.187744 224.673752,287.694153 
	C224.609039,282.506134 222.945435,280.889099 217.839813,281.028290 
	C213.395752,281.149384 210.796982,283.603638 209.679169,287.708832 
	C208.452759,292.212830 209.738556,295.925446 213.716644,298.474487 
	C218.701752,301.668823 223.995529,299.002350 224.676590,292.175537 
z"/>
<path fill="#8E797C" opacity="1.000000" stroke="none" 
	d="
M348.587219,290.789795 
	C348.587708,286.029266 348.587708,281.736328 348.587708,277.251312 
	C350.445251,277.251312 351.846069,277.251312 353.762024,277.251312 
	C353.762024,282.668579 353.763428,287.783356 353.761536,292.898132 
	C353.760193,296.601685 354.697601,299.594116 359.181000,299.639069 
	C363.726715,299.684631 366.197906,297.262573 366.223083,292.800415 
	C366.251923,287.690369 366.229797,282.580078 366.229797,277.212219 
	C368.201843,277.212219 369.619659,277.212219 371.603058,277.212219 
	C371.603058,282.394135 371.361176,287.356781 371.701508,292.279175 
	C371.881104,294.877014 373.128693,297.391266 373.782715,299.971466 
	C374.003906,300.844208 374.269623,302.170532 373.827087,302.637085 
	C373.172058,303.327637 371.727478,303.951904 370.933746,303.681305 
	C369.435730,303.170624 368.161865,302.002289 366.753662,301.080322 
	C364.855255,301.972565 363.017700,303.302979 360.995972,303.703156 
	C353.490967,305.188721 347.581665,301.677887 348.587219,290.789795 
z"/>
<path fill="#887475" opacity="1.000000" stroke="none" 
	d="
M276.272675,283.778748 
	C278.343781,291.543365 278.084473,291.896667 270.698700,291.897491 
	C266.754608,291.897949 262.810516,291.897583 258.849396,291.897583 
	C259.165833,298.259796 263.732056,301.007446 270.056488,299.477203 
	C271.495789,299.128967 273.221313,299.963806 274.815094,300.254089 
	C273.501068,301.380554 272.352997,303.134277 270.846405,303.532898 
	C260.173279,306.356781 252.057953,300.018097 252.645737,289.554932 
	C252.978439,283.632233 256.763916,278.563477 261.856201,277.222168 
	C267.690796,275.685333 272.544739,277.793060 276.272675,283.778748 
M259.140747,283.789948 
	C258.724457,284.929688 258.308136,286.069427 257.795227,287.473694 
	C262.901520,287.473694 267.396362,287.473694 271.921021,287.473694 
	C271.260925,280.878815 265.788483,279.120239 259.140747,283.789948 
z"/>
<path fill="#887475" opacity="1.000000" stroke="none" 
	d="
M195.665375,277.984802 
	C197.493713,279.426880 199.597336,280.472473 200.260574,282.103699 
	C201.336792,284.750610 201.468918,287.781403 201.999603,290.650085 
	C199.674271,291.065887 197.361877,291.713165 195.020615,291.843994 
	C191.389923,292.046783 187.739548,291.897522 184.126068,291.897522 
	C183.687119,298.151947 188.486115,301.324829 195.225128,299.205902 
	C198.193176,298.272705 200.077286,297.913971 199.917786,301.851593 
	C192.181931,305.421814 184.710648,304.576385 180.633087,299.730377 
	C177.187302,295.635223 176.710800,287.541656 179.635956,282.793304 
	C182.918015,277.465546 188.187088,275.802490 195.665375,277.984802 
M190.415787,281.013153 
	C186.211945,280.932831 183.783279,282.923126 182.807831,287.379456 
	C187.841034,287.379456 192.410477,287.379456 197.160233,287.379456 
	C197.097092,282.972260 194.544189,281.630463 190.415787,281.013153 
z"/>
<path fill="#887479" opacity="1.000000" stroke="none" 
	d="
M592.406616,283.197632 
	C592.406311,286.991211 592.193787,290.334351 592.485779,293.632843 
	C592.663940,295.645416 593.689880,297.571136 594.196716,299.570923 
	C594.482910,300.700195 594.488892,301.900482 594.621094,303.068787 
	C593.429260,303.150330 591.716797,303.776154 591.135193,303.219818 
	C588.524536,300.722565 586.313721,301.846802 583.587708,303.042023 
	C576.166443,306.295746 569.654541,302.001251 569.507019,293.941864 
	C569.407227,288.487762 569.488037,283.030396 569.488037,277.271301 
	C571.377380,277.271301 572.784485,277.271301 574.755188,277.271301 
	C574.755188,282.544342 574.779358,287.659424 574.747314,292.774170 
	C574.722656,296.719086 575.773926,299.804626 580.469727,299.791962 
	C584.851929,299.780121 587.317322,297.160217 587.347107,292.658447 
	C587.373535,288.669464 587.482117,284.674530 587.311890,280.692596 
	C587.158081,277.093506 588.703247,276.267517 592.407227,277.544342 
	C592.407227,279.170776 592.407227,280.949585 592.406616,283.197632 
z"/>
<path fill="#8C7777" opacity="1.000000" stroke="none" 
	d="
M139.580444,295.161041 
	C143.553787,299.508545 147.855881,300.981873 153.263138,298.904388 
	C154.376526,298.476593 156.013733,299.412201 157.409500,299.719391 
	C156.574646,300.779358 155.951950,302.400848 154.870926,302.809235 
	C147.129593,305.733978 138.903854,303.514526 134.715546,297.625336 
	C129.892273,290.843323 130.066757,280.177368 135.105835,273.768738 
	C140.150482,267.353027 148.299500,265.630249 158.062149,269.806549 
	C156.225052,271.067688 154.888016,272.771942 153.745285,272.650330 
	C139.834702,271.169922 133.161438,279.925873 138.350845,293.119446 
	C138.590500,293.728729 139.021774,294.262695 139.580444,295.161041 
z"/>
<path fill="#8B7679" opacity="1.000000" stroke="none" 
	d="
M524.894836,303.944000 
	C523.698792,303.121460 522.278320,302.309448 522.260315,301.467438 
	C522.090271,293.519135 522.159180,285.565735 522.159180,276.430908 
	C524.820251,277.362366 526.738098,278.033661 529.236633,278.908203 
	C530.006287,278.559784 531.461121,277.683105 533.037476,277.225769 
	C539.503601,275.349884 544.924683,278.996246 545.288086,285.758942 
	C545.598938,291.544067 545.352356,297.359131 545.352356,303.333191 
	C542.020569,304.534973 540.128052,304.256653 540.285583,300.194214 
	C540.446472,296.045074 540.423401,291.880615 540.274536,287.730255 
	C540.154236,284.377777 539.256226,280.970245 535.102966,281.231140 
	C531.287842,281.470795 527.940002,283.483887 527.554016,287.799561 
	C527.185303,291.922577 527.626953,296.113983 527.359985,300.252594 
	C527.278076,301.520508 526.033264,302.713409 524.894836,303.944000 
z"/>
<path fill="#887475" opacity="1.000000" stroke="none" 
	d="
M494.018066,290.075806 
	C494.804230,282.283691 498.518463,277.770630 504.419464,277.005005 
	C513.533386,275.822540 519.113464,281.681488 517.755615,291.823364 
	C511.876221,291.823364 505.875549,291.823364 499.802734,291.823364 
	C500.727936,298.829742 504.869781,301.124237 511.782593,299.122864 
	C515.092407,298.164612 515.092407,298.164612 516.001953,301.815552 
	C504.161377,307.623047 494.546997,302.678741 494.018066,290.075806 
M513.627014,285.891449 
	C511.968903,281.640320 508.528931,280.063507 504.537537,281.285339 
	C502.223419,281.993713 500.451111,284.472046 498.434967,286.153839 
	C498.792389,286.855194 499.149780,287.556549 499.507202,288.257874 
	C504.202637,287.727509 508.898071,287.197113 513.627014,285.891449 
z"/>
<path fill="#887475" opacity="1.000000" stroke="none" 
	d="
M625.384277,291.897095 
	C623.783936,291.958435 622.634521,292.019897 621.481018,292.081573 
	C621.967834,297.805511 625.046997,300.394745 630.615479,299.747803 
	C631.910217,299.597412 633.161804,298.789398 634.431030,298.795044 
	C635.486938,298.799744 636.539490,299.554352 637.593567,299.976807 
	C637.007751,300.938934 636.652222,302.354553 635.798096,302.788239 
	C630.957581,305.245972 623.075684,304.167603 619.402283,300.770813 
	C615.601074,297.255859 614.319458,289.974365 616.547180,284.549805 
	C618.837708,278.972504 624.551697,275.964172 630.762268,277.065735 
	C636.068237,278.006866 639.581787,282.342102 639.825745,288.005676 
	C639.938171,290.614410 639.325928,292.106598 636.290344,291.941559 
	C632.814758,291.752625 629.321106,291.897400 625.384277,291.897095 
M621.696594,287.727600 
	C626.086365,287.727600 630.476135,287.727600 635.116455,287.727600 
	C634.687317,282.488464 631.799133,281.009735 627.964172,281.067078 
	C623.965149,281.126862 620.903320,282.617767 621.696594,287.727600 
z"/>
<path fill="#897476" opacity="1.000000" stroke="none" 
	d="
M340.958710,299.974792 
	C335.595337,304.606079 329.854523,305.355469 324.004456,302.306091 
	C318.957977,299.675659 316.848816,294.970581 317.240631,289.346802 
	C317.634644,283.692200 320.381897,279.546326 325.943420,277.755646 
	C331.586823,275.938660 336.817596,276.693268 341.142883,281.039276 
	C344.852936,284.767120 345.857147,290.925659 343.599457,295.919830 
	C342.991089,297.265503 342.011414,298.443298 340.958710,299.974792 
M335.031525,282.276794 
	C330.713287,279.774506 326.966492,280.837646 323.942657,284.422791 
	C321.241547,287.625397 321.505890,293.151672 324.350830,296.494415 
	C326.949860,299.548279 330.210297,300.885071 334.136200,299.273773 
	C338.236694,297.590881 340.337769,293.466919 339.151245,288.486908 
	C338.653900,286.399475 336.891541,284.613403 335.031525,282.276794 
z"/>
<path fill="#8D787A" opacity="1.000000" stroke="none" 
	d="
M467.518921,278.637817 
	C470.298981,276.605499 471.725067,277.197266 472.873627,280.174774 
	C474.997498,285.680664 477.525269,291.030792 480.521271,297.906403 
	C483.417542,291.056335 485.797974,285.667603 487.970459,280.196320 
	C489.246887,276.981567 490.913879,276.504517 493.828217,279.195343 
	C490.533875,286.749939 487.282745,294.507324 483.753113,302.135803 
	C482.517426,304.806396 478.067383,304.908905 476.905884,302.269867 
	C473.515778,294.567017 470.468567,286.713226 467.518921,278.637817 
z"/>
<path fill="#8C7777" opacity="1.000000" stroke="none" 
	d="
M252.334106,301.929718 
	C243.791031,306.442108 237.646042,302.888733 237.317581,293.556732 
	C237.183441,289.745789 237.295425,285.926208 237.295425,281.823181 
	C236.299179,281.542389 235.292297,281.482697 234.574326,280.996399 
	C233.774628,280.454803 232.961411,279.603333 232.713593,278.728302 
	C232.604324,278.342499 233.919678,277.605621 234.511169,276.957703 
	C235.635468,275.726044 236.752838,274.481842 237.782791,273.171875 
	C238.848495,271.816437 239.807007,270.376740 240.812408,268.973907 
	C241.407242,270.461365 242.092606,271.920929 242.562866,273.446747 
	C242.844452,274.360413 242.789566,275.377777 242.828247,275.767517 
	C245.547424,276.921631 247.876785,277.910309 250.206131,278.898987 
	C247.963882,279.963013 245.721649,281.027069 242.667160,282.476532 
	C242.667160,285.985687 242.513779,290.420166 242.712952,294.838745 
	C242.890335,298.774170 245.017273,300.853271 248.986801,299.280914 
	C251.774078,298.176910 252.164001,299.577820 252.334106,301.929718 
z"/>
<path fill="#897476" opacity="1.000000" stroke="none" 
	d="
M557.251465,296.108215 
	C558.578674,299.494324 560.653931,300.306793 563.784180,299.498444 
	C564.831482,299.227997 566.187683,300.153503 568.273193,300.803802 
	C564.124451,304.421906 560.240051,305.161621 557.184814,303.028625 
	C554.820251,301.377899 552.920227,297.996307 552.356934,295.085510 
	C551.550659,290.919067 552.151489,286.480347 552.151489,281.852661 
	C550.827209,281.514923 549.644836,281.460327 548.773621,280.911591 
	C548.099487,280.487000 547.527222,279.467773 547.460571,278.667084 
	C547.417786,278.152374 548.416077,277.037537 548.875122,277.075256 
	C552.788818,277.396942 552.262756,274.453796 552.892822,272.137939 
	C553.209229,270.974701 554.343323,270.033936 555.107544,268.992523 
	C555.730774,270.108032 556.579041,271.160400 556.914673,272.356567 
	C557.259521,273.585999 557.103882,274.955811 557.127380,275.441772 
	C559.961914,276.891815 562.286255,278.080872 564.610535,279.269897 
	C562.371521,280.165649 560.132446,281.061432 557.164734,282.248718 
	C557.164734,286.169769 557.164734,290.930145 557.251465,296.108215 
z"/>
<path fill="#947E7F" opacity="1.000000" stroke="none" 
	d="
M383.737427,289.500488 
	C383.708405,294.406281 383.708405,298.861908 383.708405,303.663635 
	C381.818878,303.769287 380.409363,303.848114 378.625092,303.947876 
	C378.625092,294.871338 378.625092,286.161530 378.625092,276.264496 
	C380.982971,277.317139 382.755249,278.108368 384.909882,279.070312 
	C387.325195,278.362915 390.613861,277.399750 393.902527,276.436554 
	C394.268127,277.061035 394.633728,277.685516 394.999329,278.309998 
	C393.927246,279.242432 392.936188,280.849884 391.768982,280.989990 
	C386.820923,281.583801 384.446960,284.392517 383.737427,289.500488 
z"/>
<path fill="#8E797C" opacity="1.000000" stroke="none" 
	d="
M167.916260,286.744995 
	C167.794708,292.472687 167.794708,297.776459 167.794708,303.609741 
	C165.631348,303.715240 164.128876,303.788513 162.345581,303.875488 
	C162.345581,294.773499 162.345581,286.184570 162.345581,276.353149 
	C164.869339,277.441803 166.782883,278.267242 168.468414,278.994293 
	C171.382599,278.211975 174.559723,277.359039 177.736862,276.506134 
	C178.002716,277.041962 178.268585,277.577789 178.534454,278.113647 
	C175.035568,280.849457 171.536697,283.585236 167.916260,286.744995 
z"/>
<path fill="#8C7779" opacity="1.000000" stroke="none" 
	d="
M605.248169,299.514679 
	C605.491333,303.676483 603.821106,304.710693 600.218140,303.393738 
	C600.218140,294.796570 600.218140,286.221893 600.218140,276.253448 
	C602.531982,277.480591 604.163208,278.345734 606.018921,279.329926 
	C608.554382,278.518646 611.835876,277.468628 615.117432,276.418640 
	C615.504395,277.015137 615.891296,277.611664 616.278259,278.208160 
	C615.219971,279.168793 614.305359,280.674011 613.078918,280.997620 
	C607.154053,282.560791 605.457031,284.429016 605.269409,290.601227 
	C605.183594,293.422729 605.250854,296.248901 605.248169,299.514679 
z"/>
<path fill="#AA2D2D" opacity="1.000000" stroke="none" 
	d="
M395.490295,246.766632 
	C396.076508,246.105148 397.114899,245.072678 398.160889,245.064896 
	C412.293945,244.959885 426.428162,244.983734 440.561829,245.039230 
	C441.280060,245.042068 441.995972,245.621307 442.838348,246.297455 
	C427.291138,246.732498 411.618591,246.802261 395.490295,246.766632 
z"/>
<path fill="#FDF2F3" opacity="1.000000" stroke="none" 
	d="
M353.406464,82.982956 
	C352.881958,88.697021 348.204895,85.997757 345.205078,87.516487 
	C345.111298,88.780792 345.398682,90.416245 344.799011,91.603790 
	C344.039276,93.108330 342.534332,95.304703 341.394897,95.278557 
	C339.975677,95.245987 337.416901,93.247612 337.419495,92.102760 
	C337.428986,87.868675 335.626038,86.669693 331.708405,86.615463 
	C330.719330,86.601784 328.829926,84.095085 329.019623,83.030830 
	C329.274078,81.603188 331.150604,79.396835 332.325592,79.400078 
	C335.937622,79.410019 337.358063,78.439346 337.356171,74.588402 
	C337.355499,73.243317 339.826019,71.897011 341.167999,70.551254 
	C342.410492,71.961563 344.654785,73.341568 344.698547,74.788139 
	C344.808502,78.422630 346.309204,79.209930 349.581818,79.373482 
	C350.901672,79.439438 352.123505,81.466919 353.406464,82.982956 
z"/>
<path fill="#E7E7E6" opacity="1.000000" stroke="none" 
	d="
M435.916992,79.957603 
	C437.881470,80.347847 439.784760,80.659027 441.101013,81.707336 
	C441.561707,82.074226 440.991455,84.730469 440.137177,85.473862 
	C439.282257,86.217781 437.192841,86.440826 436.155975,85.904114 
	C433.393646,84.474182 434.055298,82.256989 435.916992,79.957603 
z"/>
<path fill="#E7E7E6" opacity="1.000000" stroke="none" 
	d="
M432.670502,91.083618 
	C431.350464,92.704132 430.058441,94.157959 428.457886,95.071060 
	C428.165436,95.237892 425.873657,93.225174 425.840820,92.176704 
	C425.802277,90.947868 427.245178,88.624115 428.008911,88.639122 
	C429.549866,88.669395 431.066071,89.960236 432.670502,91.083618 
z"/>
<path fill="#E7E7E6" opacity="1.000000" stroke="none" 
	d="
M432.344421,72.888123 
	C431.593170,74.840004 430.728912,76.447449 429.864685,78.054886 
	C428.586914,77.267570 426.820465,76.750656 426.187469,75.606590 
	C425.689331,74.706291 426.487244,71.929550 426.885956,71.892639 
	C428.632690,71.730934 430.443726,72.263176 432.344421,72.888123 
z"/>
<path fill="#E7E7E6" opacity="1.000000" stroke="none" 
	d="
M420.209778,79.519913 
	C423.755615,80.258240 425.383636,81.982101 423.237427,85.099518 
	C422.666443,85.928848 420.852051,86.484467 419.817963,86.248421 
	C418.789062,86.013580 417.159363,84.412048 417.314087,83.785187 
	C417.687958,82.270180 418.948730,80.974060 420.209778,79.519913 
z"/>
<path fill="#FCF8F8" opacity="1.000000" stroke="none" 
	d="
M415.046570,233.871414 
	C415.047089,226.724701 415.178833,220.061661 414.989868,213.407715 
	C414.899323,210.219467 415.846771,208.819733 419.206543,209.022934 
	C422.855988,209.243668 426.529297,209.039963 430.191315,209.088745 
	C439.116272,209.207626 444.348022,214.641708 444.608154,224.011536 
	C444.821289,231.690659 438.751770,238.666901 430.953369,239.207062 
	C425.998138,239.550308 420.999817,239.271240 415.397156,239.271240 
	C415.269226,237.481308 415.157623,235.920074 415.046570,233.871414 
z"/>
<path fill="#FBF6F6" opacity="1.000000" stroke="none" 
	d="
M440.097260,184.610138 
	C441.861603,196.858292 435.073608,201.138168 424.806244,201.561996 
	C412.845795,202.055725 415.284668,202.834335 415.051636,192.510071 
	C414.961487,188.516129 415.217773,184.507614 414.980042,180.525818 
	C414.779938,177.174316 415.690369,175.542374 419.368347,175.890869 
	C422.340485,176.172501 425.356415,176.004623 428.352966,176.012985 
	C434.145020,176.029129 438.250824,178.435120 440.097260,184.610138 
z"/>
<path fill="#FBF6F6" opacity="1.000000" stroke="none" 
	d="
M185.090256,201.927612 
	C185.090317,193.179459 185.090317,184.919815 185.090317,176.268127 
	C189.603622,176.268127 193.624710,175.756104 197.455673,176.391037 
	C202.872086,177.288773 206.699875,180.485168 208.233719,186.141098 
	C211.853058,199.487289 204.023651,210.371796 190.695648,210.333298 
	C185.090363,210.317123 185.090363,210.317108 185.090256,201.927612 
z"/>
<path fill="#FDFAFA" opacity="1.000000" stroke="none" 
	d="
M348.806641,192.929474 
	C351.777618,197.176788 355.405579,200.965912 356.809357,205.451172 
	C359.596771,214.357010 359.270660,223.548248 355.154053,232.212540 
	C352.797302,237.172836 348.810699,239.546127 343.162323,239.500305 
	C337.669617,239.455719 333.747833,236.994431 331.696136,232.209854 
	C326.953033,221.148834 326.822693,209.856537 331.768921,198.834549 
	C334.768829,192.149704 341.434570,190.000122 348.806641,192.929474 
z"/>
<path fill="#FDFAFA" opacity="1.000000" stroke="none" 
	d="
M508.984009,189.810303 
	C517.184509,190.365891 521.350769,195.353409 523.336121,202.128143 
	C526.206848,211.924149 526.294312,221.826691 522.165222,231.410477 
	C519.835083,236.818802 515.810364,240.328751 509.778748,240.854874 
	C503.370728,241.413834 498.773254,238.147995 496.093018,232.732422 
	C490.357727,221.143829 490.393646,209.303299 496.204224,197.731003 
	C498.656250,192.847610 502.856415,189.975296 508.984009,189.810303 
z"/>
<path fill="#FDF9F9" opacity="1.000000" stroke="none" 
	d="
M265.708557,192.489517 
	C271.295410,189.308853 276.585907,189.418854 281.476562,192.864548 
	C286.563354,196.448441 287.383148,201.900284 286.636322,207.607758 
	C285.873444,213.437790 281.536407,217.733902 275.672516,218.114563 
	C270.541473,218.447662 265.365234,218.176453 260.212250,218.043839 
	C257.234955,217.967239 255.705154,216.535751 255.986206,213.277496 
	C256.676910,205.269531 258.543701,197.859207 265.708557,192.489517 
z"/>
<path fill="#F7F8FA" opacity="1.000000" stroke="none" 
	d="
M458.637695,297.014343 
	C453.188538,300.646973 450.370026,300.524292 446.975830,296.846985 
	C443.832947,293.442047 443.520996,288.311035 446.307678,284.471893 
	C448.489532,281.466003 451.483276,280.334869 455.049988,281.369507 
	C458.432098,282.350586 459.610199,284.791077 459.243866,288.260345 
	C458.949371,291.049622 459.004639,293.875824 458.637695,297.014343 
z"/>
<path fill="#F7F6F5" opacity="1.000000" stroke="none" 
	d="
M429.714355,294.381836 
	C428.596527,299.372559 425.047974,300.173798 421.299316,299.547913 
	C416.486511,298.744415 413.962830,293.950928 414.821899,288.323914 
	C415.572815,283.405121 419.252991,280.580933 424.330261,281.053436 
	C427.934418,281.388824 430.227051,282.823212 429.764099,287.013245 
	C429.511230,289.301666 429.718842,291.640961 429.714355,294.381836 
z"/>
<path fill="#F6F4F3" opacity="1.000000" stroke="none" 
	d="
M224.675797,292.606232 
	C223.995529,299.002350 218.701752,301.668823 213.716644,298.474487 
	C209.738556,295.925446 208.452759,292.212830 209.679169,287.708832 
	C210.796982,283.603638 213.395752,281.149384 217.839813,281.028290 
	C222.945435,280.889099 224.609039,282.506134 224.673752,287.694153 
	C224.692383,289.187744 224.676590,290.681732 224.675797,292.606232 
z"/>
<path fill="#F1F0F0" opacity="1.000000" stroke="none" 
	d="
M259.388428,283.481812 
	C265.788483,279.120239 271.260925,280.878815 271.921021,287.473694 
	C267.396362,287.473694 262.901520,287.473694 257.795227,287.473694 
	C258.308136,286.069427 258.724457,284.929688 259.388428,283.481812 
z"/>
<path fill="#F1F0F0" opacity="1.000000" stroke="none" 
	d="
M190.824753,281.019623 
	C194.544189,281.630463 197.097092,282.972260 197.160233,287.379456 
	C192.410477,287.379456 187.841034,287.379456 182.807831,287.379456 
	C183.783279,282.923126 186.211945,280.932831 190.824753,281.019623 
z"/>
<path fill="#F1F0F0" opacity="1.000000" stroke="none" 
	d="
M513.610229,286.279114 
	C508.898071,287.197113 504.202637,287.727509 499.507202,288.257874 
	C499.149780,287.556549 498.792389,286.855194 498.434967,286.153839 
	C500.451111,284.472046 502.223419,281.993713 504.537537,281.285339 
	C508.528931,280.063507 511.968903,281.640320 513.610229,286.279114 
z"/>
<path fill="#F1F0F0" opacity="1.000000" stroke="none" 
	d="
M621.352051,287.557098 
	C620.903320,282.617767 623.965149,281.126862 627.964172,281.067078 
	C631.799133,281.009735 634.687317,282.488464 635.116455,287.727600 
	C630.476135,287.727600 626.086365,287.727600 621.352051,287.557098 
z"/>
<path fill="#F7F7F7" opacity="1.000000" stroke="none" 
	d="
M335.367920,282.483551 
	C336.891541,284.613403 338.653900,286.399475 339.151245,288.486908 
	C340.337769,293.466919 338.236694,297.590881 334.136200,299.273773 
	C330.210297,300.885071 326.949860,299.548279 324.350830,296.494415 
	C321.505890,293.151672 321.241547,287.625397 323.942657,284.422791 
	C326.966492,280.837646 330.713287,279.774506 335.367920,282.483551 
z"/>
</svg>